<svg xmlns="http://www.w3.org/2000/svg" width="46" height="46" viewBox="0 0 46 46">
    <g fill="none" fill-rule="evenodd" transform="rotate(90 23 23)">
        <circle cx="23" cy="23" r="23" fill="#FFF"/>
        <path fill="#000" d="M31.092 20.83a.487.487 0 0 0-.002-.679l-1.594-1.616a.459.459 0 0 0-.553-.075l-3.209 3.263a3.836 3.836 0 0 1-.331.3l-2.154 2.19a.464.464 0 0 1-.341.14.463.463 0 0 1-.341-.14l-2.154-2.19a3.865 3.865 0 0 1-.332-.3l-3.209-3.263a.458.458 0 0 0-.552.075l-1.594 1.616a.487.487 0 0 0-.002.679l7.83 8.02c.097.098.226.145.354.14a.466.466 0 0 0 .353-.14l7.83-8.02z"/>
    </g>
</svg>
