<svg xmlns="http://www.w3.org/2000/svg" width="32" height="32.499" viewBox="0 0 32 32.499">
  <g id="Group_1317" data-name="Group 1317" transform="translate(6399 12902.25)">
    <rect id="Rectangle_280" data-name="Rectangle 280" width="32" height="32" transform="translate(-6399 -12902)" fill="#fff" opacity="0"/>
    <g id="surface1" transform="translate(-6402.5 -12907.664)">
      <path id="Path_968" data-name="Path 968" d="M30.5,16.912c0,4.95-7,15.836-9.826,20.042a1.327,1.327,0,0,1-2.349,0C15.5,32.748,8.5,21.863,8.5,16.912a11.129,11.129,0,0,1,11-11.248,11.129,11.129,0,0,1,11,11.248Zm0,0" fill="#5ab1ff" stroke="#000" stroke-width="0.5"/>
      <path id="Path_969" data-name="Path 969" d="M23.733,15.163a5.868,5.868,0,1,1-5.867-6,5.931,5.931,0,0,1,5.867,6Zm0,0" transform="translate(1.633 1.749)" fill="#fff" stroke="#000" stroke-width="0.5"/>
    </g>
  </g>
</svg>
