<?xml version="1.0" standalone="no"?>
<!DOCTYPE svg PUBLIC "-//W3C//DTD SVG 20010904//EN"
 "http://www.w3.org/TR/2001/REC-SVG-20010904/DTD/svg10.dtd">
<svg version="1.0" xmlns="http://www.w3.org/2000/svg"
 width="1354.000000pt" height="1354.000000pt" viewBox="0 0 1354.000000 1354.000000"
 preserveAspectRatio="xMidYMid meet">
<metadata>
Created by potrace 1.11, written by Peter Selinger 2001-2013
</metadata>
<g transform="translate(0.000000,1354.000000) scale(0.100000,-0.100000)"
fill="#000000" stroke="none">
<path d="M6498 11445 c-1 -1 -46 -6 -98 -9 -52 -4 -106 -8 -120 -10 -14 -2
-52 -7 -85 -11 -480 -52 -1075 -262 -1515 -533 -96 -59 -248 -159 -260 -172
-3 -3 -43 -34 -90 -69 -232 -176 -501 -437 -668 -650 -361 -460 -601 -940
-737 -1476 -24 -93 -46 -183 -48 -200 -30 -177 -38 -229 -43 -280 -3 -33 -7
-66 -9 -72 -8 -23 -18 -217 -19 -338 l-1 -120 3903 -3 3902 -2 0 106 0 105
-92 -5 c-51 -3 -129 -8 -173 -11 -147 -9 -249 -15 -365 -21 -63 -3 -141 -7
-173 -9 -207 -14 -547 -20 -1137 -19 -607 1 -1052 4 -2480 19 -1035 11 -2622
27 -2850 29 l-145 1 -3 45 -3 46 1193 4 c656 2 2324 3 3707 2 l2513 -3 -5 78
c-4 43 -6 84 -7 92 0 13 -37 12 -265 -4 -22 -2 -83 -6 -135 -10 -52 -3 -120
-8 -150 -10 -30 -2 -109 -7 -175 -10 -66 -4 -145 -8 -175 -10 -435 -27 -1068
-24 -1915 10 -99 4 -522 9 -940 11 -418 1 -803 5 -855 8 -52 2 -210 7 -350 11
-140 4 -286 9 -325 10 -184 7 -1433 23 -1888 24 l-208 1 6 42 c8 53 13 60 33
54 48 -15 92 -18 257 -21 187 -4 297 7 396 40 47 16 68 16 139 0 14 -3 52 -9
85 -14 215 -34 315 -32 480 9 245 61 322 67 446 35 117 -30 227 -22 305 24
l37 22 39 -31 c48 -39 116 -70 165 -74 39 -4 131 15 169 35 16 8 28 7 52 -5
43 -22 196 -65 256 -72 28 -3 76 -9 106 -13 68 -9 305 -7 380 3 128 17 273 65
359 119 53 34 161 133 161 149 0 4 6 8 13 8 8 0 11 -14 9 -46 -5 -59 20 -126
61 -160 41 -34 125 -74 157 -74 25 0 25 1 28 97 1 54 7 114 12 133 5 19 11 51
14 70 12 77 95 269 112 260 5 -3 8 -8 7 -12 -1 -3 -5 -21 -8 -39 -3 -18 -9
-37 -12 -42 -10 -17 -12 -200 -2 -261 8 -50 45 -175 54 -184 1 -1 14 2 27 9
23 10 24 14 17 52 -4 23 -7 85 -7 137 0 83 3 117 24 216 21 107 108 314 131
314 9 0 12 -6 9 -18 -48 -149 -55 -337 -17 -450 66 -202 224 -322 381 -288 37
9 130 63 130 76 0 5 15 4 33 -1 52 -15 248 -51 362 -66 73 -10 499 -10 610 -1
160 14 336 48 415 81 30 13 36 12 74 -9 22 -12 57 -26 76 -29 19 -4 58 -10 85
-15 81 -14 517 -3 620 15 11 2 33 4 49 4 l28 1 -6 58 c-5 54 -10 86 -21 142
-3 14 -8 39 -11 55 -15 88 -81 328 -125 460 -112 335 -278 670 -483 970 -33
50 -63 92 -66 95 -3 3 -27 34 -55 70 -27 36 -52 67 -55 70 -3 3 -25 30 -50 60
-167 206 -429 454 -658 624 -147 108 -134 106 -161 28 l-23 -67 23 -15 c59
-38 281 -209 349 -268 93 -80 237 -219 310 -298 120 -131 140 -153 231 -274
336 -441 549 -895 669 -1430 31 -137 32 -132 -35 -151 -117 -33 -217 -47 -337
-47 -137 -1 -211 12 -286 49 l-49 24 -57 -22 c-145 -59 -306 -47 -424 31 l-53
35 -52 -33 c-113 -72 -236 -109 -367 -109 -144 -1 -220 16 -332 75 -130 69
-221 172 -310 351 -10 20 -23 37 -28 37 -29 0 8 -125 80 -273 43 -88 43 -88
23 -108 -28 -29 -62 -10 -101 54 -73 121 -125 289 -145 471 -2 17 -8 31 -14
33 -15 5 -20 -42 -22 -182 -2 -130 16 -254 49 -347 26 -74 25 -95 -2 -104 -38
-13 -61 -5 -94 32 -51 56 -69 129 -68 274 1 176 13 237 113 543 64 194 111
377 111 427 0 10 22 57 49 102 57 97 109 199 184 358 30 63 69 131 87 150 18
19 63 81 101 138 179 269 316 570 372 817 42 183 59 302 45 324 -21 34 -88 65
-168 77 -26 4 -52 -2 -97 -24 -62 -29 -62 -29 -121 -13 l-60 15 -54 -34 c-49
-31 -58 -34 -125 -31 -75 2 -76 1 -163 -55 l-35 -22 -120 39 c-249 83 -549
149 -800 174 -33 3 -76 9 -95 12 -38 5 -536 13 -542 8z m2236 -177 c26 -43
-74 -354 -193 -598 -18 -36 -37 -74 -44 -85 -102 -168 -149 -225 -227 -275
-27 -18 -135 -60 -242 -96 -221 -74 -426 -170 -572 -268 -99 -66 -120 -72
-146 -41 -25 30 130 125 544 333 300 151 440 235 495 297 36 41 33 65 -5 40
-97 -63 -389 -211 -639 -324 -184 -83 -300 -144 -409 -216 l-88 -58 -34 18
c-18 10 -32 21 -29 24 7 12 160 119 205 143 25 14 119 63 210 110 91 48 194
102 228 122 35 20 65 36 67 36 2 0 38 20 79 45 42 25 78 45 80 45 9 0 256 152
383 236 132 88 165 116 150 130 -3 3 -49 -20 -102 -50 -53 -31 -98 -56 -100
-56 -3 0 -53 -26 -112 -59 -229 -124 -278 -149 -588 -303 -176 -87 -327 -163
-335 -169 -8 -5 -27 -15 -42 -22 -16 -6 -28 -15 -28 -19 0 -4 -5 -8 -11 -8 -6
0 -47 -25 -91 -55 -44 -30 -85 -55 -92 -55 -7 0 -22 11 -35 23 l-22 24 62 39
c33 21 69 44 79 49 10 6 24 16 31 22 8 6 41 26 74 43 117 64 186 101 218 119
18 10 131 69 252 131 213 110 442 241 593 341 40 27 77 49 82 49 5 0 10 4 12
8 2 4 42 32 90 62 49 30 88 61 88 68 0 6 -3 12 -6 12 -6 0 -85 -41 -289 -151
-233 -124 -350 -185 -755 -387 -403 -202 -548 -280 -593 -320 -16 -14 -19 -13
-42 8 l-25 23 78 54 c129 91 284 180 562 321 306 156 384 198 610 333 196 116
295 185 281 193 -6 4 -75 -27 -153 -69 -79 -41 -231 -118 -338 -171 -107 -53
-335 -165 -507 -250 -172 -85 -314 -154 -317 -154 -8 0 -143 -81 -223 -134
l-72 -47 -22 20 c-18 17 -20 23 -10 35 38 46 259 172 609 348 217 108 399 201
405 206 7 6 41 25 77 44 96 51 163 89 180 103 32 26 197 122 225 132 17 5 53
8 80 6 39 -3 60 2 98 23 47 25 50 25 94 11 43 -14 48 -14 97 9 58 26 104 27
120 2z m-1524 -23 c303 -39 411 -59 588 -107 92 -25 111 -33 100 -43 -34 -32
-181 -111 -498 -267 -489 -240 -535 -264 -630 -327 -47 -31 -88 -57 -92 -59
-5 -2 -20 11 -35 30 -82 98 -112 119 -223 158 -36 12 -90 38 -121 56 -81 48
-127 62 -243 73 -56 6 -113 14 -127 19 -45 16 -107 14 -181 -7 -52 -14 -89
-19 -128 -15 -94 9 -119 6 -199 -31 -67 -30 -89 -35 -152 -35 -69 0 -79 -3
-129 -36 -30 -20 -84 -48 -120 -63 -131 -53 -105 -135 51 -161 279 -46 549
-118 814 -217 66 -25 124 -49 129 -54 6 -5 15 -9 22 -9 10 0 222 -96 232 -105
2 -2 -37 -60 -87 -130 -51 -70 -103 -148 -118 -172 -24 -42 -28 -44 -57 -38
-122 29 -143 31 -186 22 -48 -11 -110 -13 -226 -8 -60 3 -82 -2 -150 -29 -57
-23 -96 -32 -139 -32 -78 -1 -107 -12 -184 -68 -43 -32 -81 -51 -118 -60 -48
-10 -64 -21 -117 -74 -46 -47 -75 -67 -114 -80 -38 -13 -60 -28 -80 -54 -15
-21 -57 -66 -93 -102 -75 -73 -89 -95 -89 -139 0 -62 53 -76 158 -42 31 10 80
25 107 34 63 20 273 72 345 86 30 6 69 13 85 17 70 13 346 52 420 59 44 3 100
9 123 11 24 3 42 2 39 -3 -8 -15 -88 -186 -144 -308 -30 -66 -68 -148 -84
-183 -16 -35 -29 -66 -29 -68 0 -3 -11 -29 -23 -57 -20 -43 -99 -250 -112
-294 -6 -17 -20 -16 -34 1 -38 45 5 245 100 470 16 38 27 72 24 75 -17 16 -52
-39 -165 -262 -156 -306 -174 -328 -226 -283 l-28 23 57 95 c52 87 105 195
121 246 5 16 3 22 -8 22 -8 0 -34 -33 -57 -72 -23 -40 -45 -75 -48 -78 -3 -3
-26 -31 -50 -63 -129 -170 -334 -284 -524 -291 -83 -4 -194 16 -297 52 l-56
20 -87 -29 c-47 -16 -135 -38 -194 -48 -195 -34 -514 -15 -644 37 -31 13 -32
6 18 212 156 650 492 1251 962 1721 195 195 293 279 468 404 166 119 477 295
643 365 41 18 89 38 105 45 114 49 340 121 501 160 54 13 254 54 289 58 22 4
72 11 110 16 39 5 115 13 170 17 55 3 102 8 104 10 6 6 509 -4 561 -11z m-733
-1317 c8 -7 -10 -39 -66 -112 -276 -363 -578 -901 -744 -1326 -60 -151 -57
-97 3 82 126 375 288 744 455 1033 47 81 200 319 239 371 8 10 20 7 55 -13 26
-15 51 -30 58 -35z m1457 10 c11 -41 6 -113 -8 -134 -8 -11 -35 -33 -60 -49
-25 -16 -46 -33 -46 -37 0 -10 -21 -10 -38 1 -16 9 -24 135 -11 166 13 31 38
59 46 51 4 -4 1 -16 -6 -28 -18 -29 -22 -57 -16 -105 7 -47 22 -54 49 -24 11
12 14 21 7 26 -15 8 -14 48 1 63 7 7 20 12 29 12 18 0 36 51 24 70 -3 5 0 10
8 10 8 0 17 -10 21 -22z m-1288 -109 c58 -33 64 -45 36 -75 -58 -64 -273 -404
-422 -669 -29 -51 -182 -358 -204 -407 -9 -21 -22 -53 -30 -70 -19 -44 -57
-142 -100 -258 -40 -110 -59 -104 -26 8 11 40 29 102 39 140 96 332 277 757
451 1057 62 107 190 305 197 305 3 0 30 -14 59 -31z m264 -176 c0 -2 -34 -56
-75 -119 -187 -284 -377 -632 -492 -898 -19 -44 -40 -94 -48 -110 -14 -32 -57
-152 -96 -269 -40 -119 -39 -57 2 98 60 225 165 530 235 683 13 29 24 55 24
58 0 4 34 77 76 163 74 151 161 309 230 419 l34 52 55 -36 c30 -20 55 -39 55
-41z m158 -113 c23 -18 42 -37 42 -41 0 -4 -28 -52 -62 -106 -237 -376 -463
-840 -553 -1135 -19 -62 -39 -79 -30 -25 6 31 44 174 84 312 83 291 245 675
396 944 39 71 60 99 68 93 7 -5 31 -24 55 -42z m293 -200 c81 -32 166 -37 220
-13 25 11 57 32 72 47 31 31 36 15 8 -29 -48 -78 -99 -105 -186 -99 -65 5
-112 21 -153 51 -18 14 -35 23 -37 22 -8 -9 38 -84 67 -110 46 -42 117 -75
168 -79 11 0 10 -3 -4 -12 -49 -28 -190 13 -248 73 -54 55 -86 150 -73 211 l6
27 54 -34 c30 -19 77 -44 106 -55z"/>
<path d="M10 6787 c0 -15 11 -28 34 -41 39 -21 52 -45 71 -135 18 -86 22
-1547 4 -1651 -14 -80 -43 -135 -80 -150 -25 -11 -44 -42 -31 -54 3 -3 149 -6
324 -6 l318 0 0 23 c0 15 -9 28 -24 35 -33 15 -70 67 -92 127 -15 43 -18 93
-22 348 -2 163 -2 297 0 297 1 0 39 -12 83 -26 145 -46 318 -38 450 21 186 82
301 229 353 453 15 69 8 268 -12 337 -56 185 -176 313 -366 388 -126 50 -191
56 -617 56 l-393 0 0 -22z m790 -343 c114 -26 180 -76 222 -169 19 -41 23 -67
23 -150 0 -93 -2 -105 -33 -170 -41 -88 -123 -169 -212 -213 -73 -35 -125 -48
-222 -57 l-68 -5 0 384 c0 298 3 385 13 389 29 10 222 4 277 -9z"/>
<path d="M8890 6785 c0 -17 7 -25 28 -30 37 -8 59 -42 77 -117 13 -54 14 -183
12 -883 -1 -451 -6 -830 -9 -842 -17 -55 -41 -91 -73 -106 -23 -11 -35 -24
-35 -37 0 -20 5 -20 573 -20 l573 0 88 248 c48 136 88 251 89 256 5 22 -45 14
-75 -12 -118 -100 -223 -148 -383 -177 -31 -6 -305 -7 -340 -1 -20 3 -20 11
-22 747 -2 779 -1 806 41 888 12 22 31 38 57 49 29 11 39 21 39 38 l0 23 -320
0 -320 0 0 -24z"/>
<path d="M3475 6498 c-311 -53 -551 -270 -644 -583 -31 -105 -33 -118 -37
-280 -5 -219 28 -365 114 -513 59 -101 106 -158 186 -221 162 -129 371 -192
616 -186 129 3 229 23 310 63 61 30 51 8 130 279 23 78 39 146 36 151 -9 16
-42 7 -92 -25 -181 -116 -398 -168 -553 -132 -196 45 -328 211 -365 459 -48
324 78 582 323 656 58 17 217 12 284 -10 68 -22 160 -70 232 -122 35 -24 64
-44 67 -44 6 0 4 437 -2 444 -3 2 -17 7 -30 10 -14 3 -43 10 -65 15 -166 41
-395 58 -510 39z"/>
<path d="M7727 6499 c-162 -23 -322 -101 -443 -217 -122 -117 -215 -305 -243
-493 -11 -72 -16 -257 -8 -309 4 -27 18 -106 22 -130 2 -8 13 -44 24 -80 76
-229 248 -410 472 -494 223 -83 533 -83 704 0 l59 29 49 165 c59 199 67 233
61 240 -12 11 -41 4 -79 -21 -67 -44 -177 -96 -255 -121 -104 -32 -288 -32
-370 0 -71 28 -145 85 -192 147 -42 56 -93 169 -102 229 -4 21 -9 42 -12 47
-2 5 -6 54 -8 109 -9 290 105 488 324 564 29 10 75 14 144 12 128 -4 213 -33
349 -122 53 -35 98 -63 98 -61 1 1 2 98 3 215 1 156 -2 216 -11 223 -14 12
-95 32 -222 55 -98 18 -279 24 -364 13z"/>
<path d="M5637 6470 c-301 -3 -547 -8 -547 -12 0 -5 0 -15 0 -23 0 -8 11 -17
25 -21 28 -7 48 -38 61 -94 10 -45 12 -1294 2 -1380 -10 -87 -24 -116 -63
-134 -21 -11 -32 -22 -31 -34 3 -16 24 -17 277 -17 249 0 274 2 277 17 2 11
-8 23 -27 33 -62 31 -66 51 -69 351 -3 256 -3 271 15 275 10 3 99 4 198 3 147
-1 186 -4 213 -18 17 -9 32 -23 32 -30 0 -12 20 -26 38 -26 4 0 7 12 8 28 1
15 5 92 9 172 14 243 13 255 -10 258 -13 2 -24 -5 -30 -20 -17 -38 -73 -49
-265 -52 -96 -1 -183 0 -192 2 -16 4 -18 23 -18 214 l0 209 238 -2 c266 -1
295 -7 322 -66 10 -21 22 -33 35 -33 18 0 25 23 68 198 26 108 47 200 47 204
0 5 -15 7 -32 5 -18 -1 -279 -4 -581 -7z"/>
<path d="M11585 6470 c-514 -5 -550 -6 -553 -23 -2 -11 7 -22 25 -29 73 -33
73 -33 73 -800 0 -370 -2 -685 -4 -700 -10 -66 -33 -103 -73 -119 -14 -5 -21
-16 -20 -29 1 -20 6 -20 277 -20 271 0 276 0 277 20 1 13 -6 24 -20 29 -41 16
-59 46 -72 121 -11 62 -8 502 3 509 5 3 93 6 195 5 194 0 241 -9 252 -45 4
-10 11 -20 16 -20 29 -5 33 -1 35 31 1 31 14 308 18 385 2 40 -35 48 -52 11
-17 -39 -74 -49 -285 -50 l-187 -1 -1 25 c-1 26 -1 337 0 378 l1 22 228 -1
c266 -1 297 -7 327 -62 14 -26 26 -37 39 -35 16 3 27 33 67 198 27 107 48 198
49 202 0 4 -15 6 -32 5 -18 -1 -280 -4 -583 -7z"/>
<path d="M12813 6472 l-513 -2 0 -23 c0 -15 11 -27 33 -37 25 -12 36 -26 49
-65 15 -45 16 -118 15 -750 -2 -656 -3 -703 -20 -742 -17 -37 -47 -61 -69 -55
-5 1 -8 -9 -8 -23 l0 -25 550 0 c303 0 550 2 550 3 0 2 22 93 50 203 27 109
50 202 50 207 0 16 -43 5 -89 -24 -59 -35 -140 -66 -230 -84 -71 -15 -298 -17
-377 -3 l-50 9 0 219 0 220 110 1 c230 2 255 -3 293 -48 36 -44 53 -26 54 59
1 40 3 93 4 118 2 25 6 84 9 133 5 85 4 87 -18 87 -14 0 -27 -9 -34 -24 -17
-37 -67 -46 -253 -46 l-166 0 1 196 0 196 225 -4 c250 -4 269 -8 296 -65 12
-25 22 -33 37 -31 12 2 22 10 24 18 7 38 64 338 70 362 5 26 4 27 -38 25 -24
-1 -274 -3 -555 -5z"/>
<path d="M1690 6448 c0 -17 10 -27 40 -40 55 -23 66 -54 45 -126 -9 -30 -66
-188 -127 -351 -60 -163 -157 -424 -214 -581 -146 -399 -155 -421 -180 -461
-26 -41 -79 -89 -100 -89 -8 0 -14 -10 -14 -25 l0 -25 270 0 c255 0 270 1 270
18 0 10 -17 30 -37 43 -37 24 -38 26 -36 84 1 41 15 102 45 190 l43 130 285 0
285 0 42 -120 c73 -209 76 -267 17 -294 -14 -6 -24 -19 -24 -31 0 -20 6 -20
290 -20 343 0 330 -5 221 94 -38 34 -77 109 -119 226 -41 114 -73 201 -181
490 -51 135 -101 270 -113 300 -11 30 -29 78 -39 105 -11 28 -57 151 -103 275
l-84 225 -241 3 -241 2 0 -22z m329 -543 c18 -49 36 -99 41 -110 17 -39 110
-295 110 -303 0 -6 -337 -9 -372 -3 -9 1 -3 19 91 276 45 121 81 227 81 235 0
28 18 -6 49 -95z"/>
<path d="M4317 6450 c-4 -16 2 -24 28 -34 25 -11 37 -25 51 -62 18 -46 19 -88
19 -724 0 -371 -3 -693 -7 -715 -9 -65 -26 -96 -57 -108 -18 -7 -31 -20 -34
-34 l-4 -23 279 0 279 0 -3 22 c-2 12 -16 29 -33 38 -59 33 -59 31 -63 740 -3
656 1 768 34 832 8 15 26 31 39 34 18 4 25 13 25 30 l0 24 -274 0 c-266 0
-274 -1 -279 -20z"/>
<path d="M6383 6449 c2 -11 18 -29 35 -40 35 -21 47 -44 57 -110 9 -57 9
-1320 0 -1378 -10 -66 -22 -89 -57 -110 -17 -11 -33 -29 -35 -41 -3 -20 -1
-20 274 -18 255 3 278 4 281 20 2 11 -5 21 -20 27 -36 14 -56 42 -68 96 -14
56 -18 1261 -6 1375 8 78 32 130 66 147 14 7 26 21 26 33 1 20 -3 20 -277 20
-276 0 -279 0 -276 -21z"/>
<path d="M10282 6448 c2 -12 17 -29 33 -38 61 -33 60 -23 60 -805 0 -652 -1
-713 -17 -748 -12 -25 -28 -43 -48 -50 -21 -8 -30 -18 -30 -34 l0 -23 275 0
275 0 0 24 c0 17 -7 26 -26 30 -18 5 -32 21 -47 54 -22 47 -22 49 -22 737 0
648 1 693 19 747 14 45 25 60 47 70 20 9 29 20 29 35 l0 23 -276 0 -275 0 3
-22z"/>
<path d="M10 3780 l0 -30 6745 0 6745 0 0 30 0 30 -6745 0 -6745 0 0 -30z"/>
<path d="M1348 3402 l-36 -3 0 -453 0 -452 196 0 197 1 3 58 3 57 -141 0 -140
0 0 394 0 394 -22 3 c-13 2 -39 3 -60 1z"/>
<path d="M3230 2950 l0 -456 54 -2 c35 -1 55 3 58 11 2 6 4 94 4 195 l-1 182
63 0 c57 0 67 -3 93 -29 32 -33 31 -26 33 -221 l1 -135 58 -1 57 0 0 165 c0
145 -3 172 -21 211 -11 24 -25 48 -31 52 -9 5 -3 24 18 65 26 52 29 68 29 153
0 84 -3 102 -28 152 -24 49 -35 61 -80 82 -46 22 -67 25 -180 28 l-127 3 0
-455z m261 324 c23 -14 41 -71 40 -129 -1 -115 -30 -148 -128 -143 l-58 3 -1
130 c0 72 2 135 4 142 3 11 124 9 143 -3z"/>
<path d="M4660 3400 c-5 -3 -8 -30 -7 -60 l2 -55 90 -1 c50 -1 95 -2 100 -3 7
-1 9 -138 7 -395 l-2 -393 60 -1 60 0 0 394 c0 308 3 394 13 395 6 1 46 3 87
4 41 1 80 3 86 4 7 0 12 24 13 56 l1 55 -53 0 c-28 1 -141 2 -250 3 -110 1
-203 0 -207 -3z"/>
<path d="M6164 3401 c-2 -2 -4 -124 -4 -270 -1 -263 -4 -286 -30 -203 -5 15
-49 126 -99 247 l-89 220 -51 3 -51 3 0 -454 0 -454 59 0 58 0 -1 268 c0 147
2 265 6 261 4 -4 36 -81 73 -172 36 -91 84 -208 106 -261 l40 -96 48 0 49 1 0
452 0 452 -55 4 c-30 1 -57 1 -59 -1z"/>
<path d="M12386 3402 c-14 -3 -16 -46 -16 -457 l0 -453 58 2 57 2 0 192 0 192
63 0 c57 0 67 -3 93 -29 17 -18 29 -41 30 -58 1 -15 2 -89 3 -163 l1 -135 55
0 55 0 3 155 c3 168 -6 223 -44 264 -20 20 -20 25 -8 38 34 33 53 111 49 204
-3 99 -19 146 -62 185 -59 53 -61 53 -193 59 -70 3 -135 4 -144 2z m249 -136
c24 -16 40 -72 38 -131 -5 -105 -34 -135 -127 -135 l-61 0 0 137 c0 76 3 141
8 144 15 11 119 0 142 -15z"/>
<path d="M137 3385 c-53 -18 -81 -47 -107 -108 -21 -49 -22 -64 -22 -327 1
-158 5 -290 11 -309 30 -98 101 -147 211 -145 54 1 74 6 108 29 58 38 90 107
97 208 l5 77 -60 0 -60 0 -1 -50 c-1 -27 -3 -54 -4 -60 -1 -5 -3 -17 -4 -25
-2 -32 -48 -65 -89 -65 -48 0 -79 23 -92 69 -12 44 -11 504 1 541 19 54 70 77
129 58 36 -12 50 -40 56 -111 7 -86 6 -85 66 -83 l53 1 0 60 c1 191 -133 299
-298 240z"/>
<path d="M670 2945 l0 -455 187 2 188 3 0 55 0 55 -50 2 c-28 1 -86 2 -130 2
l-80 1 0 138 0 137 130 5 130 5 0 50 c1 28 -3 52 -7 55 -4 3 -61 5 -128 5 -76
0 -120 3 -121 10 -5 40 -4 265 0 266 3 1 62 2 131 3 l125 1 0 58 1 57 -188 0
-188 0 0 -455z"/>
<path d="M1939 3383 c-4 -80 -3 -877 2 -884 3 -6 84 -8 189 -7 l184 3 -1 28
c-1 15 -1 41 -2 57 l-1 30 -130 0 -130 0 2 140 2 140 128 0 c136 0 130 -2 130
50 0 72 11 66 -122 65 -66 -1 -124 1 -129 5 -5 3 -9 66 -8 140 l2 135 128 0
c70 -1 127 3 128 7 1 4 1 19 1 33 0 14 0 36 -1 50 l-1 25 -185 0 c-169 0 -185
-1 -186 -17z"/>
<path d="M2580 2946 l0 -457 108 2 c133 2 190 18 231 64 67 77 80 244 26 348
-22 44 -24 52 -11 66 29 33 45 104 42 191 -4 115 -29 168 -101 215 -25 16 -52
20 -162 23 l-133 4 0 -456z m218 335 c36 -2 62 -55 62 -129 0 -85 -19 -128
-62 -140 -49 -13 -90 -9 -97 11 -8 21 -5 242 3 255 3 5 20 8 38 7 18 -2 43 -3
56 -4z m31 -417 c23 -20 26 -30 28 -104 2 -87 -11 -132 -42 -144 -9 -3 -39 -6
-66 -6 -40 0 -49 3 -50 18 -1 21 -1 256 0 260 1 2 24 2 53 1 36 -2 59 -9 77
-25z"/>
<path d="M4127 3348 c-8 -29 -18 -71 -23 -93 -4 -22 -8 -44 -10 -50 -1 -5 -25
-109 -53 -230 -28 -121 -65 -278 -81 -348 -17 -71 -30 -130 -30 -133 0 -2 27
-4 60 -4 54 0 60 2 65 23 2 12 15 69 28 127 l24 105 78 0 79 0 12 -50 c7 -27
20 -85 29 -127 l17 -78 59 0 c32 0 59 4 59 9 0 5 -21 96 -46 202 -25 107 -47
205 -50 219 -3 14 -11 50 -19 80 -8 30 -16 66 -19 80 -3 14 -20 90 -39 170
l-33 145 -46 3 -46 3 -15 -53z m76 -333 c3 -16 12 -58 20 -92 l15 -62 -53 0
-53 1 14 52 c7 28 19 75 25 105 12 57 22 55 32 -4z"/>
<path d="M5447 3393 c-2 -5 -3 -208 -3 -453 l1 -445 58 -3 57 -3 0 456 0 455
-54 0 c-30 0 -57 -3 -59 -7z"/>
<path d="M6669 3380 c-54 -25 -93 -80 -109 -154 -8 -33 -11 -142 -8 -311 3
-249 4 -262 27 -308 29 -59 72 -93 137 -108 94 -22 194 18 235 93 21 39 35
138 33 238 -1 52 -3 98 -3 101 -1 7 -203 10 -236 4 -17 -4 -20 -12 -19 -57 l0
-53 71 -5 70 -5 -2 -65 c-4 -110 -26 -140 -102 -140 -49 0 -80 27 -89 77 -9
49 -9 477 0 526 9 48 50 76 104 70 39 -4 81 -39 83 -71 1 -9 3 -37 4 -62 2
-25 3 -49 4 -55 1 -11 110 -17 112 -6 11 63 -7 167 -36 218 -35 59 -82 85
-163 90 -52 3 -77 -1 -113 -17z"/>
<path d="M7882 3296 l-72 -104 46 -38 c37 -29 48 -34 54 -23 5 8 16 23 24 34
16 21 17 -2 17 -523 l0 -153 57 3 57 3 3 453 2 452 -58 0 -58 0 -72 -104z"/>
<path d="M8336 3113 c1 -159 2 -291 3 -294 0 -3 25 -6 55 -5 l54 1 5 58 c6 66
31 97 77 97 54 0 73 -45 72 -171 0 -134 -24 -189 -83 -189 -32 0 -69 40 -69
75 0 20 -5 22 -55 20 -30 -1 -57 -4 -61 -7 -3 -4 1 -31 10 -60 52 -181 278
-196 352 -23 12 27 19 77 22 156 8 206 -38 295 -163 313 -22 3 -55 2 -72 -3
l-33 -10 0 104 c0 73 4 104 13 107 6 2 67 4 135 3 l122 0 0 57 0 58 -193 0
-193 0 2 -287z"/>
<path d="M9094 3386 c-41 -18 -85 -74 -101 -128 -19 -63 -18 -558 1 -621 26
-87 78 -135 158 -144 83 -10 151 34 189 121 21 48 22 66 24 306 0 140 -3 275
-8 300 -21 113 -79 172 -175 177 -35 2 -69 -2 -88 -11z m121 -116 c25 -21 33
-99 33 -331 -1 -291 -10 -328 -79 -329 -35 0 -57 27 -67 81 -14 72 -8 510 7
546 19 46 71 62 106 33z"/>
<path d="M10160 3396 c0 -3 29 -55 63 -118 35 -62 66 -118 68 -123 2 -6 31
-57 64 -115 l59 -105 2 -215 c1 -118 2 -218 3 -222 0 -5 26 -8 56 -8 l55 0 0
221 0 221 57 102 c80 143 88 157 129 233 20 37 45 83 56 101 l20 32 -69 0 -68
-1 -90 -164 c-49 -90 -93 -161 -96 -157 -4 4 -18 27 -31 52 -14 25 -53 96 -87
158 l-63 112 -64 0 c-35 0 -64 -2 -64 -4z"/>
<path d="M11001 2945 l0 -455 189 0 189 0 -1 60 -2 60 -124 -1 c-68 0 -126 2
-129 5 -4 4 -7 197 -4 259 1 15 14 17 130 17 l128 0 2 58 1 57 -126 0 c-101 0
-127 2 -132 14 -4 11 -7 210 -3 256 1 7 49 10 128 10 l127 0 3 58 3 57 -190 0
-189 0 0 -455z"/>
<path d="M11781 3083 c-40 -175 -74 -325 -76 -333 -2 -8 -15 -65 -29 -127 -14
-61 -26 -117 -26 -123 0 -7 20 -10 58 -8 l57 3 17 75 c10 41 24 97 31 125 l12
50 77 1 c88 1 79 10 103 -106 9 -41 20 -92 26 -112 l10 -38 59 0 c51 0 58 2
55 18 -10 47 -50 223 -105 457 -34 143 -63 267 -65 275 -2 8 -11 48 -20 88
l-17 72 -46 0 -47 0 -74 -317z m163 -185 l7 -38 -50 1 c-47 2 -49 3 -45 28 3
14 7 34 10 43 3 9 6 25 8 35 2 10 9 38 16 63 l13 45 17 -70 c9 -38 20 -87 24
-107z"/>
<path d="M13193 3379 c-73 -36 -118 -118 -122 -222 -5 -124 43 -195 178 -264
107 -54 132 -81 135 -144 5 -86 -35 -139 -103 -139 -63 1 -91 39 -96 129 -1
31 -3 59 -4 64 0 4 -26 7 -56 7 l-55 0 0 -54 c0 -137 50 -224 143 -251 87 -25
161 -9 216 45 48 49 64 87 69 171 4 66 1 84 -20 131 -15 33 -40 66 -64 84 -38
30 -103 64 -121 64 -21 0 -79 53 -94 86 -26 56 -8 148 35 183 21 18 90 18 111
1 24 -20 36 -56 40 -120 2 -30 4 -57 4 -60 1 -3 26 -6 57 -6 l56 -1 -4 88 c-3
75 -8 94 -34 135 -55 89 -174 121 -271 73z"/>
<path d="M17 2140 c-7 -3 -12 -15 -13 -27 0 -20 4 -23 40 -24 23 0 3058 0
6746 -1 l6705 0 0 28 0 28 -6733 0 c-3703 1 -6738 -1 -6745 -4z"/>
</g>
</svg>
